<?xml version="1.0" encoding="UTF-8" standalone="no"?>
<svg width="196px" height="53px" viewBox="0 0 196 53" version="1.1" xmlns="http://www.w3.org/2000/svg" xmlns:xlink="http://www.w3.org/1999/xlink" xmlns:sketch="http://www.bohemiancoding.com/sketch/ns">
    <!-- Generator: Sketch 3.3.2 (12043) - http://www.bohemiancoding.com/sketch -->
    <title>logo_move_wide</title>
    <desc>Created with Sketch.</desc>
    <defs>
        <linearGradient x1="36.6311828%" y1="215.19267%" x2="52.0577061%" y2="-3.17211435%" id="linearGradient-1">
            <stop stop-color="#FFF100" offset="0%"></stop>
            <stop stop-color="#F9EC31" offset="41.94%"></stop>
            <stop stop-color="#EE4036" offset="67.78%"></stop>
            <stop stop-color="#7F3F97" offset="100%"></stop>
        </linearGradient>
        <linearGradient x1="-167.946595%" y1="-84.0822121%" x2="78.7913978%" y2="95.1812662%" id="linearGradient-2">
            <stop stop-color="#F9EC31" offset="0%"></stop>
            <stop stop-color="#D6DE23" offset="41.94%"></stop>
            <stop stop-color="#EE4036" offset="67.78%"></stop>
            <stop stop-color="#7F3F97" offset="100%"></stop>
        </linearGradient>
        <linearGradient x1="192.736559%" y1="-41.2457429%" x2="14.6824373%" y2="103.274781%" id="linearGradient-3">
            <stop stop-color="#FFF100" offset="0%"></stop>
            <stop stop-color="#D6DE23" offset="28.68%"></stop>
            <stop stop-color="#EE4036" offset="67.78%"></stop>
            <stop stop-color="#7F3F97" offset="100%"></stop>
        </linearGradient>
        <linearGradient x1="72.2491039%" y1="-126.292984%" x2="47.6007168%" y2="95.9886226%" id="linearGradient-4">
            <stop stop-color="#FFF100" offset="0%"></stop>
            <stop stop-color="#F9EC31" offset="41.94%"></stop>
            <stop stop-color="#EE4036" offset="67.78%"></stop>
            <stop stop-color="#7F3F97" offset="100%"></stop>
        </linearGradient>
        <linearGradient x1="-31.797491%" y1="-71.5479245%" x2="114.472401%" y2="101.263396%" id="linearGradient-5">
            <stop stop-color="#FFF100" offset="0%"></stop>
            <stop stop-color="#EE4036" offset="44.02%"></stop>
            <stop stop-color="#7F3F97" offset="100%"></stop>
        </linearGradient>
        <linearGradient x1="-56.0637993%" y1="-160.776604%" x2="64.3939068%" y2="106.802264%" id="linearGradient-6">
            <stop stop-color="#FFF100" offset="43.31%"></stop>
            <stop stop-color="#EE4036" offset="81.92%"></stop>
            <stop stop-color="#7F3F97" offset="100%"></stop>
        </linearGradient>
    </defs>
    <g id="Page-1" stroke="none" stroke-width="1" fill="none" fill-rule="evenodd" sketch:type="MSPage">
        <g id="logo_move_wide" sketch:type="MSLayerGroup" transform="translate(0.000000, -1.000000)">
            <path d="M184.458883,36.6792453 L174.808122,36.6792453 C174.211168,36.6792453 173.813198,36.2716981 173.813198,35.6603774 L173.813198,15.9962264 C173.813198,15.3849057 174.211168,14.9773585 174.808122,14.9773585 L184.458883,14.9773585 C190.328934,14.9773585 195.104569,19.8679245 195.104569,25.8792453 C195.104569,31.890566 190.328934,36.6792453 184.458883,36.6792453 L184.458883,36.6792453 Z M175.902538,34.6415094 L184.558376,34.6415094 C189.33401,34.6415094 193.214213,30.6679245 193.214213,25.7773585 C193.214213,20.8867925 189.33401,16.9132075 184.558376,16.9132075 L175.902538,16.9132075 L175.902538,34.6415094 L175.902538,34.6415094 Z" id="Shape" fill="#FFFFFF" sketch:type="MSShapeGroup"></path>
            <path d="M164.460914,17.2188679 L149.139086,17.2188679 C148.542132,17.2188679 148.144162,16.8113208 148.144162,16.2 C148.144162,15.5886792 148.542132,15.1811321 149.139086,15.1811321 L164.460914,15.1811321 C165.057868,15.1811321 165.455838,15.5886792 165.455838,16.2 C165.455838,16.8113208 164.958376,17.2188679 164.460914,17.2188679 Z M164.460914,27.2037736 L149.139086,27.2037736 C148.542132,27.2037736 148.144162,26.7962264 148.144162,26.1849057 C148.144162,25.5735849 148.542132,25.1660377 149.139086,25.1660377 L164.460914,25.1660377 C165.057868,25.1660377 165.455838,25.5735849 165.455838,26.1849057 C165.455838,26.7962264 164.958376,27.2037736 164.460914,27.2037736 Z M164.460914,36.2716981 L149.139086,36.2716981 C148.542132,36.2716981 148.144162,35.8641509 148.144162,35.2528302 C148.144162,34.6415094 148.542132,34.2339623 149.139086,34.2339623 L164.460914,34.2339623 C165.057868,34.2339623 165.455838,34.6415094 165.455838,35.2528302 C165.455838,35.8641509 164.958376,36.2716981 164.460914,36.2716981 Z" id="Shape" fill="#FFFFFF" sketch:type="MSShapeGroup"></path>
            <path d="M131.329949,37.0867925 C130.93198,37.0867925 130.633503,36.8830189 130.434518,36.4754717 L121.480203,16.6075472 C121.281218,16.0981132 121.480203,15.4867925 121.977665,15.2830189 C122.475127,15.0792453 123.072081,15.2830189 123.271066,15.7924528 L131.329949,33.6226415 L139.388832,15.7924528 C139.587817,15.2830189 140.184772,15.0792453 140.682234,15.2830189 C141.179695,15.4867925 141.37868,16.0981132 141.179695,16.6075472 L132.225381,36.4754717 C132.026396,36.8830189 131.727919,37.0867925 131.329949,37.0867925 L131.329949,37.0867925 Z" id="Shape" fill="#FFFFFF" sketch:type="MSShapeGroup"></path>
            <path d="M105.461929,36.9849057 C99.3928934,36.9849057 94.5177665,31.9924528 94.5177665,25.7773585 C94.5177665,19.5622642 99.3928934,14.5698113 105.461929,14.5698113 C111.530964,14.5698113 116.406091,19.5622642 116.406091,25.7773585 C116.406091,31.9924528 111.530964,36.9849057 105.461929,36.9849057 L105.461929,36.9849057 Z M105.461929,16.6075472 C100.48731,16.6075472 96.5076142,20.6830189 96.5076142,25.7773585 C96.5076142,30.8716981 100.48731,34.9471698 105.461929,34.9471698 C110.436548,34.9471698 114.416244,30.8716981 114.416244,25.7773585 C114.416244,20.6830189 110.436548,16.6075472 105.461929,16.6075472 L105.461929,16.6075472 Z" id="Shape" fill="#FFFFFF" sketch:type="MSShapeGroup"></path>
            <path d="M86.3593909,36.5773585 C85.7624365,36.5773585 85.364467,36.1698113 85.364467,35.5584906 L85.364467,17.8301887 L77.9025381,21.7018868 C77.6040609,21.8037736 77.3055838,21.8037736 77.0071066,21.7018868 L69.5451777,17.8301887 L69.5451777,35.4566038 C69.5451777,36.0679245 69.1472081,36.4754717 68.5502538,36.4754717 C67.9532995,36.4754717 67.5553299,36.0679245 67.5553299,35.4566038 L67.5553299,16.0981132 C67.5553299,15.7924528 67.7543147,15.3849057 68.0527919,15.2830189 C68.351269,15.0792453 68.7492386,15.0792453 69.0477157,15.2830189 L77.5045685,19.6641509 L85.9614213,15.2830189 C86.2598985,15.0792453 86.657868,15.1811321 86.9563452,15.2830189 C87.2548223,15.4867925 87.4538071,15.7924528 87.4538071,16.0981132 L87.4538071,35.4566038 C87.3543147,36.0679245 86.8568528,36.5773585 86.3593909,36.5773585 L86.3593909,36.5773585 Z" id="Shape" fill="#FFFFFF" sketch:type="MSShapeGroup"></path>
            <path d="M0,27.3056604 L0,52.3698113 C0,53.2867925 0.895431472,53.7962264 1.69137056,53.490566 L27.7583756,40.754717 L0,27.3056604 L0,27.3056604 Z" id="Shape" fill="url(#linearGradient-1)" sketch:type="MSShapeGroup"></path>
            <path d="M0,2.24150943 L0,27.3056604 L27.7583756,13.8566038 L1.69137056,1.12075472 C0.895431472,0.713207547 0,1.3245283 0,2.24150943 L0,2.24150943 Z" id="Shape" fill="url(#linearGradient-2)" sketch:type="MSShapeGroup"></path>
            <path d="M27.7583756,13.754717 L55.5167513,27.2037736 L55.5167513,2.24150943 C55.5167513,1.3245283 54.6213198,0.81509434 53.8253807,1.12075472 L27.7583756,13.754717 L27.7583756,13.754717 Z" id="Shape" fill="url(#linearGradient-3)" sketch:type="MSShapeGroup"></path>
            <path d="M55.5167513,52.3698113 L55.5167513,27.3056604 L27.7583756,40.754717 L53.8253807,53.3886792 C54.6213198,53.7962264 55.5167513,53.1849057 55.5167513,52.3698113 L55.5167513,52.3698113 Z" id="Shape" fill="url(#linearGradient-4)" sketch:type="MSShapeGroup"></path>
            <path d="M0,27.3056604 L27.7583756,40.754717 L27.7583756,13.754717 L0,27.3056604 Z" id="Shape" fill="url(#linearGradient-5)" sketch:type="MSShapeGroup"></path>
            <path d="M27.7583756,13.754717 L27.7583756,40.754717 L55.5167513,27.3056604 L27.7583756,13.754717 Z" id="Shape" fill="url(#linearGradient-6)" sketch:type="MSShapeGroup"></path>
        </g>
    </g>
</svg>
